<svg width="73" height="121" viewBox="0 0 73 121" fill="none" xmlns="http://www.w3.org/2000/svg">
<path d="M10.0105 121C6.82771 121 4.36357 119.928 2.61814 117.782C0.872714 115.511 0 112.42 0 108.508V12.3023C0 8.26459 0.821378 5.23634 2.46413 3.21751C4.20956 1.0725 6.6737 0 9.85654 0C13.0394 0 15.4522 1.0725 17.0949 3.21751C18.8404 5.23634 19.7131 8.26459 19.7131 12.3023V100.37H64.3755C67.1477 100.37 69.2524 101.253 70.6899 103.02C72.2299 104.786 73 107.31 73 110.59C73 113.871 72.2299 116.458 70.6899 118.35C69.2524 120.117 67.1477 121 64.3755 121H10.0105Z" fill="white"/>
</svg>
