<svg width="13" height="20" viewBox="0 0 13 20" fill="none" xmlns="http://www.w3.org/2000/svg">
<path d="M2.48181 19.76C1.97256 19.76 1.5783 19.5884 1.29903 19.2452C1.01976 18.8818 0.880127 18.3872 0.880127 17.7614V2.36839C0.880127 1.72236 1.01155 1.23784 1.27439 0.914826C1.55366 0.571625 1.94792 0.400024 2.45717 0.400024C2.96643 0.400024 3.35248 0.571625 3.61532 0.914826C3.89459 1.23784 4.03422 1.72236 4.03422 2.36839V16.4592H11.1802C11.6238 16.4592 11.9605 16.6006 12.1905 16.8832C12.4369 17.1658 12.5601 17.5696 12.5601 18.0945C12.5601 18.6194 12.4369 19.0332 12.1905 19.3361C11.9605 19.6187 11.6238 19.76 11.1802 19.76H2.48181Z" fill="#F9B006"/>
</svg>
