<svg width="24" height="24" viewBox="0 0 24 24" fill="none" xmlns="http://www.w3.org/2000/svg">
<path fill-rule="evenodd" clip-rule="evenodd" d="M12 24C18.6274 24 24 18.6274 24 12C24 5.37258 18.6274 0 12 0C5.37258 0 0 5.37258 0 12C0 18.6274 5.37258 24 12 24ZM12 21.9429C17.4913 21.9429 21.9429 17.4913 21.9429 12C21.9429 6.50871 17.4913 2.05714 12 2.05714C6.50871 2.05714 2.05714 6.50871 2.05714 12C2.05714 17.4913 6.50871 21.9429 12 21.9429Z" fill="#F9B006"/>
<path d="M9.94864 17.1429C9.61977 17.1429 9.36516 17.0331 9.18481 16.8136C9.00446 16.5811 8.91429 16.2647 8.91429 15.8644V7.43051C8.91429 7.01727 8.99916 6.70734 9.1689 6.50073C9.34925 6.28119 9.60386 6.17143 9.93273 6.17143C10.2616 6.17143 10.5109 6.28119 10.6807 6.50073C10.861 6.70734 10.9512 7.01727 10.9512 7.43051V15.0315H15.566C15.8524 15.0315 16.0699 15.1219 16.2184 15.3027C16.3776 15.4835 16.4571 15.7417 16.4571 16.0775C16.4571 16.4132 16.3776 16.678 16.2184 16.8717C16.0699 17.0525 15.8524 17.1429 15.566 17.1429H9.94864Z" fill="#F9B006"/>
</svg>
