<svg width="72" height="72" viewBox="0 0 72 72" fill="none" xmlns="http://www.w3.org/2000/svg">
<g filter="url(#filter0_d_2188_720)">
<path fill-rule="evenodd" clip-rule="evenodd" d="M36 56C47.0457 56 56 47.0457 56 36C56 24.9543 47.0457 16 36 16C24.9543 16 16 24.9543 16 36C16 47.0457 24.9543 56 36 56ZM36.0801 54.4C46.2421 54.4 54.4801 46.1262 54.4801 35.92C54.4801 25.7137 46.2421 17.44 36.0801 17.44C25.918 17.44 17.6801 25.7137 17.6801 35.92C17.6801 46.1262 25.918 54.4 36.0801 54.4Z" fill="#F9B006"/>
</g>
<path d="M32.4818 45.76C31.9726 45.76 31.5783 45.5884 31.299 45.2452C31.0198 44.8818 30.8801 44.3872 30.8801 43.7614V28.3684C30.8801 27.7224 31.0115 27.2378 31.2744 26.9148C31.5537 26.5716 31.9479 26.4 32.4572 26.4C32.9664 26.4 33.3525 26.5716 33.6153 26.9148C33.8946 27.2378 34.0342 27.7224 34.0342 28.3684V42.4592H41.1802C41.6238 42.4592 41.9605 42.6006 42.1905 42.8832C42.4369 43.1658 42.5601 43.5696 42.5601 44.0945C42.5601 44.6194 42.4369 45.0332 42.1905 45.3361C41.9605 45.6187 41.6238 45.76 41.1802 45.76H32.4818Z" fill="#F9B006"/>
<defs>
<filter id="filter0_d_2188_720" x="0" y="0" width="72" height="72" filterUnits="userSpaceOnUse" color-interpolation-filters="sRGB">
<feFlood flood-opacity="0" result="BackgroundImageFix"/>
<feColorMatrix in="SourceAlpha" type="matrix" values="0 0 0 0 0 0 0 0 0 0 0 0 0 0 0 0 0 0 127 0" result="hardAlpha"/>
<feOffset/>
<feGaussianBlur stdDeviation="8"/>
<feColorMatrix type="matrix" values="0 0 0 0 1 0 0 0 0 1 0 0 0 0 1 0 0 0 0.25 0"/>
<feBlend mode="normal" in2="BackgroundImageFix" result="effect1_dropShadow_2188_720"/>
<feBlend mode="normal" in="SourceGraphic" in2="effect1_dropShadow_2188_720" result="shape"/>
</filter>
</defs>
</svg>
